<?xml version="1.0" standalone="no"?>
<!DOCTYPE svg PUBLIC "-//W3C//DTD SVG 20010904//EN"
 "http://www.w3.org/TR/2001/REC-SVG-20010904/DTD/svg10.dtd">
<svg version="1.0" xmlns="http://www.w3.org/2000/svg"
 width="800.000000pt" height="800.000000pt" viewBox="0 0 800.000000 800.000000"
 preserveAspectRatio="xMidYMid meet">

<g transform="translate(0.000000,800.000000) scale(0.100000,-0.100000)"
fill="#000000" stroke="none">
<path d="M3740 7790 c-161 -26 -298 -76 -405 -146 -34 -22 -86 -98 -90 -130
-1 -14 -9 -30 -18 -37 -8 -7 -17 -21 -19 -32 -2 -12 -14 -22 -33 -26 -17 -3
-51 -20 -76 -37 -26 -18 -52 -32 -58 -32 -6 0 -14 -12 -17 -27 -4 -16 -10 -32
-14 -38 -11 -16 -10 -55 2 -55 5 0 -2 -14 -16 -31 -14 -17 -26 -36 -26 -42 0
-14 -72 -158 -87 -175 -7 -7 -13 -25 -13 -40 0 -15 -7 -49 -15 -76 -19 -62
-19 -200 -1 -302 27 -145 29 -180 13 -206 -29 -46 -38 -120 -33 -283 5 -179
29 -296 67 -327 26 -22 39 -22 86 -3 19 8 36 15 37 15 0 0 2 -11 2 -24 1 -14
24 -96 52 -183 l50 -158 5 -195 c2 -107 2 -252 -2 -322 -5 -116 -8 -129 -31
-153 -23 -25 -28 -26 -100 -20 -96 9 -234 -20 -314 -65 -90 -51 -235 -89 -550
-145 -82 -15 -181 -38 -220 -52 -110 -39 -325 -146 -385 -192 -75 -55 -271
-265 -271 -288 0 -10 -22 -71 -49 -136 -70 -164 -114 -291 -156 -442 -19 -71
-48 -175 -65 -230 -49 -162 -167 -650 -191 -787 -12 -69 -25 -130 -28 -135 -3
-4 -28 -20 -56 -34 -105 -55 -117 -107 -79 -339 l28 -165 -38 -82 c-20 -45
-40 -105 -43 -133 -5 -44 -2 -55 22 -90 l28 -41 -21 -47 c-14 -32 -24 -87 -31
-171 -13 -140 -6 -164 49 -176 35 -8 36 -8 11 -49 -10 -17 -29 -62 -41 -101
-12 -38 -33 -104 -46 -145 -13 -42 -24 -85 -24 -98 0 -35 34 -62 80 -62 31 0
40 -4 40 -17 0 -23 -59 -430 -66 -460 l-6 -23 2187 0 c1883 0 2186 2 2176 14
-9 11 -9 22 3 50 14 33 14 36 -2 37 -10 0 -12 3 -4 6 6 2 12 9 12 14 0 6 -3 8
-7 6 -5 -3 -18 -1 -31 4 -19 7 -21 11 -10 23 9 10 17 11 26 3 11 -8 13 -2 10
34 l-3 44 -42 0 c-38 0 -40 1 -27 16 9 10 24 15 35 12 21 -6 26 11 7 23 -8 5
-5 10 9 15 29 11 30 73 1 86 l-22 9 22 22 c18 18 19 22 6 33 -17 14 -18 36 -2
42 7 2 10 8 6 12 -4 4 -14 0 -23 -9 -9 -9 -27 -16 -40 -16 -20 0 -23 5 -23 35
0 19 4 35 9 35 5 0 9 5 9 10 0 6 -9 10 -20 10 -11 0 -20 4 -20 9 0 5 11 8 24
7 38 -5 53 9 33 29 -23 22 -21 35 3 35 11 0 20 5 20 11 0 5 -4 7 -10 4 -5 -3
-10 3 -10 14 0 12 -5 18 -13 15 -7 -2 -21 2 -32 10 -18 14 -18 15 -2 16 21 0
22 10 2 36 -15 20 -20 45 -7 43 21 -4 23 3 8 26 -15 23 -15 25 3 35 29 15 38
12 36 -13 -3 -34 4 -45 36 -52 16 -4 29 -11 29 -16 0 -6 -9 -7 -20 -4 -20 6
-50 -9 -50 -26 0 -4 16 -5 35 -2 23 4 35 2 35 -6 0 -6 -4 -12 -10 -12 -5 -1
-14 -3 -20 -4 -5 -1 -15 -3 -21 -4 -5 0 2 -13 18 -27 19 -18 24 -27 15 -33
-14 -8 -12 -83 3 -93 6 -5 5 -8 -3 -8 -10 0 -10 -3 2 -15 8 -8 21 -15 30 -15
13 0 13 -4 0 -35 -11 -26 -12 -41 -4 -55 6 -11 9 -24 6 -29 -3 -5 3 -16 14
-26 24 -21 26 -40 5 -31 -9 3 -15 0 -15 -8 0 -8 6 -17 13 -19 8 -4 8 -6 -2 -6
-11 -1 -10 -5 5 -15 18 -14 18 -15 2 -21 -27 -11 -21 -26 7 -19 20 5 24 3 19
-10 -3 -9 -12 -16 -20 -16 -8 0 -14 -4 -14 -10 0 -5 5 -10 10 -10 14 0 13 -33
-2 -48 -9 -9 -9 -15 0 -24 7 -7 12 -34 12 -60 0 -43 -2 -48 -22 -48 -21 -1
-21 -2 -5 -11 9 -5 22 -7 27 -4 6 3 10 2 10 -4 0 -5 -6 -12 -12 -14 -7 -3 189
-6 435 -6 423 -1 448 0 443 17 -9 28 -26 241 -26 330 0 76 -1 82 -21 82 -19 0
-19 1 -4 17 15 14 16 29 10 95 -6 74 -5 78 14 78 25 0 31 -9 21 -35 -9 -26 7
-73 31 -86 19 -10 19 -10 0 -47 -32 -65 -33 -76 -6 -116 23 -33 24 -40 14 -84
-9 -39 -8 -54 5 -86 9 -22 16 -66 16 -102 l0 -64 374 0 375 0 4 22 4 23 2 -22
c1 -20 7 -23 40 -23 34 0 39 3 44 26 2 14 1 42 -4 63 -12 56 -7 196 9 197 6 1
17 2 22 3 18 2 11 41 -7 41 -14 0 -18 9 -20 42 -2 61 18 73 98 59 6 -1 16 -23
39 -86 11 -29 12 -29 26 -11 19 27 18 48 -6 99 -21 44 -64 72 -104 67 -13 -1
-17 3 -13 13 4 11 0 13 -14 10 -10 -3 -19 -1 -19 5 0 6 8 13 18 15 13 4 11 5
-5 6 -27 1 -31 21 -5 22 11 0 8 5 -11 13 -16 7 -28 17 -28 22 1 5 -5 9 -11 9
-7 0 -14 8 -16 18 -4 18 13 18 67 1 12 -4 12 -2 0 12 -11 14 -10 19 10 35 28
23 47 24 85 4 41 -22 59 -20 46 4 -13 25 -13 34 0 26 6 -3 10 -2 10 4 0 5 -10
11 -22 13 -13 2 -22 9 -20 16 1 8 -2 11 -7 8 -5 -4 -12 -2 -16 4 -3 5 -16 10
-28 10 -18 0 -19 2 -7 10 13 9 13 11 0 20 -8 5 -11 10 -7 10 5 0 -3 14 -17 31
-39 46 -32 94 8 53 20 -19 20 -14 3 20 -8 14 -18 22 -23 19 -5 -4 -3 -1 3 7
11 12 15 11 29 -6 15 -19 15 -19 11 3 -3 14 -1 20 8 17 6 -3 19 6 29 20 l16
25 -45 -3 c-36 -3 -45 0 -43 12 2 8 -3 17 -9 19 -7 3 -13 0 -13 -6 0 -6 -7
-11 -15 -11 -9 0 -15 -10 -15 -26 0 -14 -4 -33 -9 -43 -13 -24 -3 -61 17 -61
8 0 13 -2 10 -5 -3 -3 -19 -2 -36 1 -25 5 -32 13 -38 38 -3 17 -11 34 -16 37
-5 3 -6 18 -2 33 7 31 56 66 92 66 12 0 22 5 22 11 0 5 4 8 8 5 4 -2 14 -1 22
4 13 8 12 12 -5 24 -21 14 -42 16 -37 4 1 -5 -2 -8 -8 -8 -5 0 -10 12 -10 28
0 21 -2 24 -10 12 -7 -11 -12 -12 -21 -3 -8 8 -5 13 11 18 17 5 19 9 10 15
-11 7 -10 13 3 34 9 14 14 32 11 40 -3 9 -3 23 0 33 6 14 11 12 35 -12 16 -15
34 -24 39 -21 6 4 13 2 16 -3 3 -5 15 -7 25 -4 30 8 32 57 4 90 -13 15 -33 38
-44 50 -10 13 -28 23 -38 23 -11 0 -22 8 -25 18 -8 23 -56 70 -56 54 0 -7 -8
-12 -17 -12 -14 0 -15 2 -4 9 7 5 10 14 6 20 -5 9 -10 9 -20 1 -10 -8 -14 -4
-17 20 -2 16 0 32 6 34 7 3 6 5 -1 5 -7 1 -13 5 -13 11 0 5 10 9 22 7 15 -1
23 4 26 16 3 13 -2 18 -15 17 -47 -5 -83 1 -83 14 0 7 -7 19 -15 26 -8 7 -15
23 -15 36 0 12 -4 26 -10 29 -19 12 -10 26 13 20 20 -6 21 -5 5 8 -21 16 -24
39 -5 31 8 -3 13 4 14 17 2 17 -2 20 -19 16 -15 -4 -29 3 -49 24 -16 17 -33
28 -39 24 -15 -9 -12 -25 5 -25 8 0 15 -4 15 -10 0 -5 -6 -10 -14 -10 -8 0
-17 -7 -20 -16 -9 -24 -8 -26 14 -19 19 6 19 5 -3 -28 -16 -25 -25 -32 -34
-25 -9 7 -13 7 -13 0 0 -6 5 -14 10 -17 18 -11 11 -35 -11 -35 -11 0 -29 -5
-40 -11 -16 -8 -18 -13 -8 -25 9 -11 8 -14 -5 -14 -14 0 -16 10 -13 61 2 33 9
64 15 68 11 7 19 43 27 126 8 74 12 94 23 108 6 7 11 22 10 32 0 11 5 49 11
85 7 36 14 79 16 95 2 17 6 41 9 55 13 65 19 108 20 140 0 19 6 38 11 42 6 5
4 12 -5 18 -11 7 -12 12 -3 18 13 8 24 282 11 282 -4 0 -8 5 -8 11 0 5 5 7 12
3 8 -5 9 -2 5 10 -4 10 -2 26 3 37 8 14 6 25 -6 43 -8 14 -13 30 -9 36 3 5 -1
10 -9 10 -9 0 -16 5 -16 10 0 6 3 10 8 10 4 0 13 9 20 21 11 18 11 24 -5 42
-10 11 -13 17 -6 14 7 -5 6 4 -3 23 -9 16 -19 30 -24 30 -4 0 -6 8 -3 18 2 10
-3 24 -12 32 -21 18 -28 8 -15 -25 9 -24 8 -27 -8 -23 -16 4 -18 -1 -17 -36 0
-34 -3 -42 -18 -42 -16 0 -18 6 -13 36 4 24 2 30 -4 20 -15 -23 -10 -123 6
-141 13 -14 13 -17 0 -22 -12 -5 -15 -35 -15 -165 0 -88 -6 -184 -12 -213 -10
-53 -64 -204 -78 -224 -4 -5 -16 -37 -26 -70 -19 -63 -55 -139 -62 -132 -5 6
30 106 94 267 53 132 69 210 46 217 -7 3 -10 12 -7 21 2 9 -1 6 -8 -8 -7 -14
-18 -29 -24 -35 -17 -16 -119 -176 -148 -233 -14 -28 -30 -53 -35 -56 -10 -6
18 71 43 118 8 16 13 33 10 37 -3 5 4 14 15 20 10 7 17 18 15 24 -3 6 7 24 21
39 27 29 31 41 15 51 -14 9 -12 25 3 22 7 -1 13 12 15 35 2 28 -2 40 -18 51
-21 14 -21 16 -5 41 10 15 15 37 13 51 -3 15 -1 22 5 18 6 -4 8 2 5 15 -4 12
-3 24 1 26 4 3 6 22 6 43 -1 21 4 44 11 51 9 8 11 24 7 43 -4 21 -1 34 8 41
11 7 11 11 2 15 -10 3 -10 10 -2 25 8 16 8 23 -2 29 -9 6 -10 9 -2 9 7 0 14
29 18 75 4 41 11 75 16 75 4 0 7 18 4 40 -2 24 1 40 7 40 6 0 4 9 -4 23 -12
18 -13 28 -3 57 7 19 9 40 5 45 -4 6 -11 46 -14 90 -4 43 -11 82 -17 86 -6 3
-12 18 -12 33 -1 14 -5 26 -9 26 -8 0 -3 71 7 110 3 14 -7 -2 -24 -35 -55
-111 -73 -154 -66 -165 3 -6 0 -7 -9 -4 -20 8 -11 80 12 106 31 36 24 148 -9
148 -6 0 -8 -4 -5 -9 4 -5 -3 -7 -14 -4 -16 4 -19 2 -14 -12 6 -15 5 -15 -14
-4 -14 9 -18 17 -12 23 6 6 10 13 10 17 0 10 -34 6 -41 -5 -4 -5 -21 -10 -37
-11 -27 -2 -32 1 -37 26 -4 18 -18 35 -36 44 -16 9 -29 21 -28 28 0 9 2 9 6 0
2 -7 16 -13 29 -13 13 0 24 -5 24 -11 0 -5 4 -7 10 -4 6 3 10 17 10 31 0 17
-5 24 -20 24 -12 0 -25 10 -32 25 -6 13 -15 22 -19 19 -14 -8 -10 19 6 40 17
23 9 42 -11 25 -16 -13 -18 -5 -4 21 7 13 5 21 -7 31 -14 12 -15 11 -9 -9 4
-13 3 -22 -3 -22 -5 0 -11 17 -13 37 -2 29 -8 39 -23 41 -20 3 -20 3 -1 -12
11 -9 17 -18 14 -21 -2 -3 -13 4 -22 14 -10 11 -24 17 -31 15 -14 -6 -28 22
-19 38 3 5 -4 12 -16 15 -16 4 -18 8 -9 14 10 6 9 10 -5 15 -11 4 -21 2 -26
-6 -7 -11 -11 -11 -24 -1 -9 8 -16 19 -16 25 0 6 5 4 10 -4 6 -10 10 -11 10
-2 0 6 8 12 17 12 24 0 5 15 -34 28 -22 7 -33 7 -33 1 0 -20 -20 3 -21 24 0
21 -1 21 -9 2 -5 -11 -9 -14 -9 -7 -1 6 -8 12 -16 12 -8 0 -15 4 -15 10 0 5
-7 7 -16 3 -11 -4 -15 -1 -12 13 2 14 -4 20 -22 22 -27 4 -53 22 -31 22 7 0 9
5 5 11 -4 7 -27 8 -68 4 -53 -6 -59 -5 -43 7 16 12 10 14 -51 13 -39 0 -75 5
-83 12 -8 6 -26 14 -39 17 -14 2 -33 7 -42 11 -13 5 -17 0 -20 -20 l-3 -27
-28 22 c-15 12 -25 26 -22 30 3 5 -4 14 -15 20 -26 14 -61 -6 -38 -22 8 -6 5
-7 -11 -3 -13 4 -26 3 -30 -3 -4 -7 -12 -8 -21 -2 -13 8 -12 10 3 10 25 0 21
18 -5 25 -13 3 -34 12 -47 18 -19 9 -25 9 -28 0 -8 -22 -36 -15 -30 7 3 13 0
20 -10 20 -19 0 -10 -45 14 -68 12 -13 13 -17 3 -20 -7 -3 -20 4 -28 14 -13
16 -14 17 -9 2 10 -28 -22 -22 -35 6 -11 25 -38 43 -38 27 0 -5 7 -11 15 -15
8 -3 15 -11 15 -18 0 -9 -3 -8 -10 2 -8 13 -11 12 -24 -5 -12 -16 -17 -18 -28
-7 -10 10 -10 17 -1 31 14 22 -3 71 -23 71 -6 0 -17 7 -24 15 -20 24 -23 9 -4
-19 9 -15 15 -28 13 -30 -7 -7 -69 53 -67 63 2 5 -6 17 -17 26 -17 14 -17 16
-2 11 9 -3 17 -1 17 4 0 6 -5 10 -11 10 -5 0 -17 16 -25 35 -8 19 -21 35 -29
35 -8 0 -14 6 -13 13 2 7 -9 13 -24 15 -36 4 -35 -7 2 -43 48 -46 39 -118 -28
-223 -108 -167 -354 -301 -587 -319 -221 -18 -509 25 -675 99 -91 41 -314 203
-304 220 4 6 10 5 15 -3 5 -8 9 -10 9 -4 0 5 12 -3 26 -18 14 -16 32 -26 40
-23 9 3 11 0 7 -11 -4 -10 -2 -14 5 -9 6 3 13 2 17 -4 3 -5 14 -10 24 -10 10
0 30 -12 45 -27 23 -22 29 -25 37 -13 12 21 11 30 -3 30 -8 0 -6 5 4 10 25 15
84 4 107 -19 12 -12 20 -24 19 -28 -2 -5 4 -8 12 -8 9 0 26 -10 39 -22 13 -12
28 -20 33 -17 4 3 8 -2 8 -10 0 -24 13 -19 50 16 20 19 29 33 22 36 -7 2 -12
8 -12 13 0 4 7 6 17 2 14 -6 15 -1 9 37 -4 24 -11 49 -16 55 -6 7 -7 15 -4 18
12 12 10 82 -3 102 -17 26 -17 46 2 39 18 -7 20 7 4 23 -8 8 -6 14 9 22 22 12
52 5 52 -11 0 -5 7 -16 15 -24 8 -9 15 -12 15 -7 0 5 -5 14 -12 21 -6 6 -9 15
-5 19 4 4 12 2 19 -5 7 -7 17 -8 29 -1 10 5 22 9 26 8 4 -1 17 -1 28 0 l20 2
-20 15 c-14 11 -16 18 -7 21 6 3 10 9 6 14 -3 5 5 9 18 10 13 0 17 3 11 6 -22
8 -14 25 9 18 16 -6 20 -4 15 9 -3 8 -2 18 3 21 6 4 10 12 10 18 0 7 -4 6 -10
-3 -8 -13 -10 -13 -10 1 0 17 30 49 47 49 7 0 8 12 3 35 -5 21 -4 38 2 41 5 3
7 13 4 21 -5 12 -1 14 14 10 14 -3 18 -1 13 6 -11 18 -12 70 -2 83 6 8 3 13
-11 17 -17 4 -19 9 -10 31 7 19 6 26 -3 26 -8 0 -7 4 3 10 13 9 13 12 -3 24
-13 10 -15 16 -7 21 9 6 9 10 -1 16 -11 7 -9 9 6 10 11 0 14 3 8 6 -7 2 -13
11 -13 19 0 8 -7 14 -15 14 -8 0 -15 5 -15 11 0 5 -4 8 -9 5 -11 -7 -23 22
-15 35 3 5 1 9 -5 9 -6 0 -8 7 -5 15 4 10 0 15 -12 15 -13 0 -15 3 -7 11 9 9
8 15 -3 26 -8 8 -11 20 -7 26 4 7 6 33 5 60 -2 29 1 47 8 47 7 0 9 8 5 19 -4
14 0 23 13 30 11 6 22 8 25 5 3 -3 8 8 12 25 3 17 10 30 13 30 21 -3 52 16 52
30 0 15 -43 61 -47 51 -1 -3 -5 -2 -9 3 -4 4 -2 7 4 7 19 0 14 20 -5 21 -10 0
-4 5 12 10 50 15 69 17 83 7 7 -7 17 -7 25 -1 18 14 150 10 155 -5 2 -6 11
-12 20 -12 13 1 11 6 -10 24 -15 13 -24 27 -20 31 4 3 -21 4 -55 1 -56 -5 -62
-3 -68 15 -5 15 -10 17 -20 9 -8 -7 -16 -7 -19 -2 -3 6 1 15 9 22 8 7 15 25
15 39 0 23 -9 32 -50 53 -33 17 -45 28 -35 32 11 4 14 17 10 51 -2 25 -1 43 4
41 5 -3 11 3 14 15 4 16 11 18 31 13 36 -9 51 4 31 26 -9 10 -18 37 -20 61
-13 128 -13 159 -3 165 7 4 6 9 -3 14 -10 7 -10 11 0 24 10 12 10 23 1 50 -6
20 -8 41 -4 47 4 7 9 39 12 73 2 34 7 63 11 66 3 3 6 12 6 20 0 8 13 18 30 21
l30 7 -30 2 c-16 1 -33 2 -37 1 -11 -2 -10 17 1 24 6 3 8 15 6 26 -3 12 -5 39
-7 61 -1 22 -6 42 -10 44 -5 3 -6 9 -3 14 3 5 -5 12 -19 16 -13 3 -27 12 -30
21 -3 8 -10 11 -16 8 -6 -3 -13 1 -16 9 -3 9 -12 16 -20 16 -8 0 -14 9 -14 19
0 11 -20 34 -50 55 -27 20 -50 40 -50 46 0 5 -3 9 -7 8 -5 -1 -21 4 -36 10
-23 10 -26 15 -18 30 14 26 112 112 128 112 14 0 329 154 350 172 22 18 124
68 138 68 7 0 15 5 17 12 10 28 168 -14 168 -43 0 -6 6 -9 13 -6 20 8 75 -39
97 -84 25 -48 25 -49 -2 -49 -21 0 -21 0 -2 -15 19 -15 19 -15 0 -30 -11 -8
-27 -15 -35 -15 -13 -1 -12 -4 4 -16 16 -12 18 -18 7 -34 -12 -19 -12 -19 21
0 62 38 101 12 56 -37 l-24 -27 32 23 c21 14 38 19 47 14 22 -13 69 -73 56
-73 -7 0 -9 -8 -5 -19 3 -10 -1 -24 -10 -31 -24 -20 -17 -32 9 -15 23 15 24
15 24 -7 1 -22 6 -63 16 -136 3 -18 12 -42 21 -54 16 -24 21 -78 6 -78 -6 0
-56 11 -113 25 -154 37 -300 51 -399 37 -94 -14 -185 -52 -216 -91 -20 -26
-21 -30 -7 -49 20 -30 30 -28 37 7 7 33 52 71 107 91 61 21 277 25 363 6 101
-23 137 -54 137 -119 0 -25 4 -48 9 -51 16 -10 41 6 41 26 0 11 5 28 10 39 8
15 7 19 -4 19 -17 0 -39 34 -29 44 3 3 23 6 44 6 33 0 41 -5 75 -52 37 -52 71
-138 54 -138 -4 0 -11 13 -15 28 -7 33 -61 102 -79 102 -10 0 -9 -18 5 -84 10
-46 25 -134 35 -197 10 -63 23 -118 30 -124 6 -5 15 -28 19 -50 6 -34 8 -37
17 -21 7 12 9 57 5 123 -5 72 -4 103 4 103 6 0 9 7 6 15 -4 8 -2 17 3 20 6 4
10 2 10 -3 0 -6 16 -29 36 -53 l36 -43 -5 35 c-2 19 -2 26 0 17 13 -54 20 6
22 205 3 288 4 277 -19 350 -11 34 -20 87 -20 117 0 33 -8 73 -20 99 -11 24
-20 55 -20 70 0 46 -86 144 -127 144 -15 0 -22 5 -21 15 2 8 -3 17 -11 20 -8
3 -11 0 -7 -7 4 -6 1 -11 -8 -11 -9 0 -16 7 -16 15 0 10 -10 15 -31 15 -17 0
-28 4 -24 10 7 11 -12 51 -33 66 -12 9 -12 14 -1 31 12 20 7 27 -60 96 -40 41
-82 88 -93 106 -14 22 -49 45 -121 81 -110 54 -154 65 -317 81 -57 5 -107 14
-110 18 -6 11 -128 11 -190 1z m890 -367 c0 -13 -3 -13 -15 -3 -8 7 -15 19
-15 27 0 13 3 13 15 3 8 -7 15 -19 15 -27z m-1520 -63 c0 -5 -5 -10 -11 -10
-5 0 -7 5 -4 10 3 6 8 10 11 10 2 0 4 -4 4 -10z m1100 0 c12 -8 11 -10 -7 -10
-12 0 -25 5 -28 10 -8 13 15 13 35 0z m-97 -8 c4 -1 7 -9 7 -19 0 -14 2 -14
20 2 16 14 23 16 32 7 16 -16 -19 -44 -45 -38 -27 7 -47 -3 -40 -20 3 -8 -1
-14 -10 -14 -8 0 -20 -7 -28 -16 -16 -20 -74 -50 -173 -91 -91 -37 -93 -38
-77 -20 6 8 8 17 4 20 -3 4 8 10 26 13 21 4 30 12 29 22 -2 10 5 18 17 20 11
1 31 6 45 9 22 6 19 8 -17 12 l-42 6 27 39 c15 22 31 38 36 37 5 -2 12 1 15 7
14 20 47 29 105 27 34 -1 64 -3 69 -3z m537 -17 c0 -8 -4 -15 -10 -15 -5 0
-10 7 -10 15 0 8 5 15 10 15 6 0 10 -7 10 -15z m155 -115 c3 -5 -1 -10 -10
-10 -9 0 -13 5 -10 10 3 6 8 10 10 10 2 0 7 -4 10 -10z m67 -70 c17 -17 28
-34 25 -37 -7 -6 -75 47 -76 60 -2 16 22 5 51 -23z m-182 -5 c-14 -8 -29 -14
-35 -14 -5 0 1 6 15 14 14 8 30 14 35 14 6 0 -1 -6 -15 -14z m184 -51 c4 -10
1 -14 -6 -12 -15 5 -23 28 -10 28 5 0 13 -7 16 -16z m-1973 -300 c-9 -28 -9
-29 -10 -3 -1 14 2 29 6 32 11 12 13 2 4 -29z m629 -66 c3 -4 28 -11 55 -17
l50 -10 -64 4 c-35 3 -82 5 -103 5 -22 0 -37 4 -34 9 3 5 15 7 27 4 15 -4 22
0 26 16 5 18 8 19 22 9 9 -7 18 -16 21 -20z m153 -84 c41 -13 56 -22 52 -32
-3 -10 0 -12 10 -8 13 4 14 2 5 -14 -6 -12 -7 -20 -1 -20 5 0 5 -12 -2 -30 -6
-16 -15 -30 -19 -30 -4 0 -8 -7 -8 -15 0 -22 -7 -19 -41 20 -32 37 -86 68
-100 59 -5 -3 -9 2 -9 10 0 9 -8 16 -19 16 -11 0 -23 5 -26 10 -3 6 1 10 10
10 15 0 15 2 1 15 -8 9 -41 20 -73 25 -50 8 -43 9 52 6 70 -2 131 -10 168 -22z
m-515 -11 c-4 -22 -38 -30 -49 -12 -9 15 7 29 34 29 12 0 17 -6 15 -17z m102
7 c-8 -5 -19 -10 -25 -10 -5 0 -3 5 5 10 8 5 20 10 25 10 6 0 3 -5 -5 -10z
m-171 -12 c0 -15 -99 -81 -99 -68 0 5 12 17 26 27 14 10 33 26 42 35 21 20 32
22 31 6z m119 -29 c-26 -74 16 -276 68 -330 23 -24 24 -29 10 -29 -55 0 -111
137 -109 269 2 63 6 88 19 102 23 26 25 24 12 -12z m614 -115 c-6 -55 -32
-132 -53 -155 -18 -21 -20 -21 -13 -4 18 53 44 152 44 173 0 15 5 22 13 19 7
-2 11 -16 9 -33z m-918 -35 c6 -38 2 -59 -8 -48 -10 10 -17 89 -8 89 5 0 12
-19 16 -41z m756 -45 c0 -64 -18 -82 -22 -22 -4 51 -22 57 -26 10 -4 -43 -22
-31 -22 16 0 41 8 56 30 64 27 9 40 -13 40 -68z m-10 -113 c0 -6 -4 -13 -10
-16 -5 -3 -10 1 -10 9 0 9 5 16 10 16 6 0 10 -4 10 -9z m-150 -141 c0 -5 -2
-10 -4 -10 -3 0 -8 5 -11 10 -3 6 -1 10 4 10 6 0 11 -4 11 -10z m8 -72 c54 1
65 -53 27 -132 -10 -20 -24 -36 -31 -36 -8 0 -14 -7 -14 -15 0 -8 -7 -15 -15
-15 -8 0 -15 7 -15 15 0 14 -5 17 -40 19 -20 1 -25 35 -6 42 18 7 21 31 5 36
-7 2 -7 12 0 30 5 14 7 35 5 46 -5 17 -2 19 23 15 15 -3 43 -5 61 -5z m272 3
c0 -6 -4 -13 -10 -16 -5 -3 -10 -16 -10 -29 0 -28 -8 -36 -26 -29 -30 11 -5
83 28 83 10 0 18 -4 18 -9z m-360 -31 c0 -5 -4 -10 -10 -10 -5 0 -10 5 -10 10
0 6 5 10 10 10 6 0 10 -4 10 -10z m19 -171 c-16 -10 -23 -4 -14 10 3 6 11 8
17 5 6 -4 5 -9 -3 -15z m408 -136 c-3 -3 -11 -2 -17 2 -8 5 -7 11 2 22 12 15
13 14 16 -1 2 -10 1 -20 -1 -23z m-777 -1058 c0 -3 -10 -10 -22 -15 -34 -15
-62 -33 -71 -47 -4 -7 -15 -13 -23 -13 -8 0 -12 5 -9 10 3 6 -4 10 -16 10 -17
0 -19 3 -10 14 10 12 52 26 116 40 32 6 35 6 35 1z m445 -85 c-3 -5 -10 -10
-16 -10 -5 0 -9 5 -9 10 0 6 7 10 16 10 8 0 12 -4 9 -10z m-541 -146 c3 -8 2
-12 -4 -9 -6 3 -10 10 -10 16 0 14 7 11 14 -7z m1826 -74 c0 -13 -7 -20 -20
-20 -18 0 -19 2 -8 20 7 11 16 20 20 20 5 0 8 -9 8 -20z m65 0 c3 -5 1 -10 -4
-10 -6 0 -11 5 -11 10 0 6 2 10 4 10 3 0 8 -4 11 -10z m145 0 c0 -5 -5 -10
-11 -10 -5 0 -7 5 -4 10 3 6 8 10 11 10 2 0 4 -4 4 -10z m-80 -20 c0 -5 -2
-10 -4 -10 -3 0 -8 5 -11 10 -3 6 -1 10 4 10 6 0 11 -4 11 -10z m-173 -72
c-16 -21 -24 -25 -34 -17 -18 16 -16 30 5 27 9 -2 18 4 18 12 3 29 4 31 18 18
11 -11 10 -17 -7 -40z m783 42 c0 -5 -4 -10 -10 -10 -5 0 -10 5 -10 10 0 6 5
10 10 10 6 0 10 -4 10 -10z m-500 -10 c0 -5 -5 -10 -11 -10 -5 0 -7 5 -4 10 3
6 8 10 11 10 2 0 4 -4 4 -10z m-113 -42 c-3 -7 -5 -2 -5 12 0 14 2 19 5 13 2
-7 2 -19 0 -25z m58 -68 c-3 -5 -12 -10 -18 -10 -7 0 -6 4 3 10 19 12 23 12
15 0z m909 -231 c0 -22 4 -39 8 -39 5 0 8 -4 8 -10 0 -20 -39 -10 -46 13 -4
12 -12 25 -18 30 -7 5 -5 11 7 18 9 5 17 22 17 37 1 25 2 25 12 8 6 -10 11
-36 12 -57z m-1054 -9 c0 -5 -5 -10 -11 -10 -5 0 -7 5 -4 10 3 6 8 10 11 10 2
0 4 -4 4 -10z m1024 -56 c9 -3 16 -12 16 -19 0 -7 6 -15 14 -18 13 -5 16 -59
5 -102 -1 -6 1 -22 5 -38 5 -17 4 -32 -4 -41 -6 -8 -13 -49 -15 -90 -4 -80
-11 -116 -24 -116 -5 0 -6 -11 -3 -25 2 -14 0 -31 -6 -38 -5 -6 -12 -23 -14
-37 -1 -14 -6 -27 -10 -30 -3 -3 -9 -46 -12 -95 -16 -239 -28 -351 -38 -360
-7 -7 -9 2 -5 30 4 22 9 92 12 155 7 154 15 295 20 350 3 25 7 81 9 125 8 118
17 208 22 216 2 4 -2 10 -8 12 -10 4 -10 8 -1 14 18 13 28 63 12 63 -12 0 -12
2 0 9 8 5 11 16 8 25 -7 18 -6 19 17 10z m215 -200 c7 -6 -70 -74 -82 -74 -6
0 0 11 13 24 14 15 20 31 16 41 -10 26 3 36 27 24 12 -7 24 -13 26 -15z m-99
6 c0 -5 -5 -10 -11 -10 -5 0 -7 5 -4 10 3 6 8 10 11 10 2 0 4 -4 4 -10z m-446
-88 c3 -5 1 -22 -4 -38 -9 -30 -11 -27 -14 19 -2 26 7 36 18 19z m516 4 c0 -3
-4 -8 -10 -11 -5 -3 -10 -1 -10 4 0 6 5 11 10 11 6 0 10 -2 10 -4z m-32 -40
c-7 -8 -15 -12 -17 -11 -5 6 10 25 20 25 5 0 4 -6 -3 -14z m-498 -65 c0 -6 -7
-8 -15 -5 -8 4 -15 15 -15 26 0 17 2 18 15 4 8 -8 15 -19 15 -25z m520 35 c0
-2 -7 -6 -15 -10 -8 -3 -15 -1 -15 4 0 6 7 10 15 10 8 0 15 -2 15 -4z m-30
-45 c0 -11 5 -23 10 -26 16 -10 12 -25 -5 -19 -9 4 -15 1 -15 -7 0 -10 -3 -10
-12 -1 -8 8 -8 15 1 25 6 8 9 22 5 31 -3 9 -1 16 5 16 6 0 11 -9 11 -19z
m-464 -76 c2 -33 6 -91 8 -130 5 -86 23 -211 34 -233 4 -9 7 -61 6 -115 -1
-54 2 -114 7 -135 5 -20 11 -75 14 -122 3 -47 12 -132 21 -190 19 -126 34
-248 38 -310 7 -104 19 -206 28 -225 6 -14 7 -7 4 25 -2 25 -2 39 1 32 3 -6 9
-10 14 -6 6 3 8 -59 7 -158 -3 -159 2 -243 22 -418 34 -291 46 -454 54 -702 3
-96 1 -118 -11 -122 -28 -11 -33 -6 -17 19 15 23 15 26 -6 55 -20 28 -20 30
-3 30 17 1 17 2 -1 15 -11 8 -15 15 -9 15 17 0 23 38 6 44 -11 5 -11 10 -3 26
8 15 8 30 1 53 -11 31 -9 55 4 89 5 11 3 18 -5 18 -9 0 -10 11 -5 36 4 24 3
34 -4 29 -6 -3 -11 -2 -11 4 0 5 5 13 10 16 6 3 10 12 10 18 0 7 -4 6 -10 -3
-8 -13 -10 -12 -10 3 0 9 4 17 9 17 5 0 8 8 6 18 -2 9 -4 27 -4 40 -1 12 -4
21 -8 21 -22 -4 -24 3 -8 21 13 15 15 23 7 33 -6 7 -8 24 -5 37 4 17 3 21 -6
15 -9 -5 -12 -1 -11 11 1 11 1 21 0 24 -7 19 -9 81 -3 77 7 -5 8 10 4 58 -1 6
-6 3 -11 -5 -8 -13 -10 -12 -10 3 0 9 5 17 10 17 6 0 10 5 10 11 0 5 -5 7 -11
3 -8 -5 -10 1 -5 19 4 17 1 31 -10 42 -15 15 -15 17 2 31 11 9 14 13 9 11 -6
-3 -15 6 -22 19 -9 19 -8 24 3 24 15 0 20 45 5 54 -11 7 -25 73 -23 109 1 17
-4 30 -14 34 -9 3 -11 9 -6 12 13 8 24 61 13 61 -13 0 -20 35 -10 51 4 7 5 17
2 23 -7 10 -13 52 -15 104 -1 17 -4 32 -7 32 -11 0 -9 65 2 72 8 5 6 13 -4 25
-23 27 -44 84 -33 91 13 10 11 63 -4 89 -14 25 -16 47 -4 39 12 -7 12 116 0
132 -7 8 -7 17 1 26 10 11 7 18 -11 31 -15 11 -19 19 -10 22 6 3 12 14 12 24
0 11 -4 18 -8 15 -11 -6 -9 34 1 51 4 6 2 15 -4 19 -7 4 -9 21 -5 46 4 23 3
37 -3 34 -5 -3 -7 3 -4 14 3 11 0 34 -6 52 -9 24 -8 33 1 39 9 6 8 12 -5 27
-13 14 -15 25 -8 48 5 16 4 40 -1 54 -6 16 -5 26 1 28 8 3 8 10 0 23 -5 11 -7
29 -4 39 4 11 2 20 -2 20 -5 0 -10 30 -11 68 -3 108 -8 156 -17 176 -5 11 -3
21 5 26 15 9 5 30 -16 30 -8 0 -14 4 -14 9 0 5 14 9 31 8 30 -2 31 -3 35 -62z
m361 29 c-3 -3 -12 -4 -19 -1 -8 3 -5 6 6 6 11 1 17 -2 13 -5z m-2 -64 c3 -5
1 -10 -4 -10 -6 0 -11 5 -11 10 0 6 2 10 4 10 3 0 8 -4 11 -10z m18 -107 c5
-25 3 -33 -8 -33 -15 0 -22 50 -8 63 8 9 9 8 16 -30z m20 -98 c-2 -64 -6 -71
-12 -20 -7 50 -4 71 7 61 3 -3 5 -22 5 -41z m27 -115 c0 -5 -4 -10 -10 -10 -5
0 -10 5 -10 10 0 6 5 10 10 10 6 0 10 -4 10 -10z m-699 -27 c-12 -20 -14 -14
-5 12 4 9 9 14 11 11 3 -2 0 -13 -6 -23z m9 -33 c0 -5 -4 -10 -10 -10 -5 0
-10 5 -10 10 0 6 5 10 10 10 6 0 10 -4 10 -10z m0 -60 c0 -5 -2 -10 -4 -10 -3
0 -8 5 -11 10 -3 6 -1 10 4 10 6 0 11 -4 11 -10z m1157 -32 c-3 -8 -6 -5 -6 6
-1 11 2 17 5 13 3 -3 4 -12 1 -19z m-651 -85 c-3 -21 -6 -57 -6 -80 0 -24 -3
-43 -8 -43 -5 0 -7 109 -2 158 0 1 5 2 11 2 8 0 10 -13 5 -37z m-19 -175 c-3
-8 -6 -5 -6 6 -1 11 2 17 5 13 3 -3 4 -12 1 -19z m2 -45 c0 -25 -1 -25 -8 -8
-5 11 -7 23 -4 28 8 14 13 7 12 -20z m-12 -105 c-3 -7 -5 -2 -5 12 0 14 2 19
5 13 2 -7 2 -19 0 -25z m473 28 c0 -3 -4 -8 -10 -11 -5 -3 -10 -1 -10 4 0 6 5
11 10 11 6 0 10 -2 10 -4z m-1030 -96 c0 -5 -5 -10 -11 -10 -5 0 -7 5 -4 10 3
6 8 10 11 10 2 0 4 -4 4 -10z m-80 -40 c0 -5 -4 -10 -10 -10 -5 0 -10 5 -10
10 0 6 5 10 10 10 6 0 10 -4 10 -10z m80 -52 c0 -6 -12 -8 -29 -5 -15 3 -33 1
-39 -5 -5 -5 -16 -8 -24 -6 -20 7 44 34 70 30 12 -2 22 -9 22 -14z m90 -48 c9
-16 8 -20 -5 -20 -8 0 -15 9 -15 20 0 11 2 20 5 20 2 0 9 -9 15 -20z m-45 -3
c9 -9 10 -19 3 -31 -11 -20 -1 -37 11 -17 6 10 10 9 14 -4 4 -10 0 -18 -10
-22 -9 -4 -19 -1 -21 5 -2 7 -7 10 -12 7 -5 -3 -5 7 -1 22 6 20 3 31 -8 40
-12 9 -12 12 -3 13 7 0 19 -6 27 -13z m-165 -27 c0 -5 -4 -10 -10 -10 -5 0
-10 5 -10 10 0 6 5 10 10 10 6 0 10 -4 10 -10z m670 -11 c0 -6 -4 -7 -10 -4
-5 3 -10 11 -10 16 0 6 5 7 10 4 6 -3 10 -11 10 -16z m-553 -81 c-3 -8 -6 -5
-6 6 -1 11 2 17 5 13 3 -3 4 -12 1 -19z m93 -3 c0 -23 -2 -24 -20 -15 -15 8
-20 8 -20 -1 0 -7 -2 -10 -5 -7 -10 9 6 37 23 41 10 3 18 5 20 6 1 0 2 -10 2
-24z m10 -53 c0 -4 -9 -13 -20 -20 -22 -13 -23 -12 -14 12 6 16 34 23 34 8z
m-20 -62 c0 -5 -2 -10 -4 -10 -3 0 -8 5 -11 10 -3 6 -1 10 4 10 6 0 11 -4 11
-10z m447 -12 c-3 -8 -6 -5 -6 6 -1 11 2 17 5 13 3 -3 4 -12 1 -19z m463 -77
c0 -6 -4 -13 -10 -16 -5 -3 -10 1 -10 9 0 9 5 16 10 16 6 0 10 -4 10 -9z
m-896 -10 c3 -4 -3 -16 -13 -25 -18 -16 -19 -16 -17 1 0 10 6 21 11 25 13 10
13 10 19 -1z m1266 -315 c0 -3 -4 -8 -10 -11 -5 -3 -10 -1 -10 4 0 6 5 11 10
11 6 0 10 -2 10 -4z m84 -167 c-2 -4 -12 -9 -22 -11 -15 -4 -17 0 -14 24 4 28
5 28 22 11 10 -10 16 -21 14 -24z m-1929 21 c3 -5 1 -10 -4 -10 -6 0 -11 5
-11 10 0 6 2 10 4 10 3 0 8 -4 11 -10z m115 -50 c0 -5 -2 -10 -4 -10 -3 0 -8
5 -11 10 -3 6 -1 10 4 10 6 0 11 -4 11 -10z m-79 -23 c-13 -13 -26 -3 -16 12
3 6 11 8 17 5 6 -4 6 -10 -1 -17z m29 -50 c-1 -21 -1 -21 -15 -3 -8 10 -12 23
-9 28 9 14 24 -2 24 -25z m50 -25 c0 -13 -3 -12 -19 4 -10 10 -16 23 -14 27 7
12 33 -13 33 -31z m-120 14 c0 -11 -19 -15 -25 -6 -3 5 1 10 9 10 9 0 16 -2
16 -4z m46 -24 c17 -11 23 -39 12 -50 -8 -8 -3 -13 15 -18 15 -3 24 -10 21
-15 -3 -6 -15 -7 -27 -4 -12 2 -16 2 -9 -1 14 -7 16 -34 2 -34 -5 0 -10 5 -10
10 0 6 -12 10 -27 10 -26 0 -26 1 -7 14 15 12 17 17 7 27 -20 20 -15 69 6 69
3 0 11 -4 17 -8z m69 -44 c14 -6 25 -15 25 -20 0 -5 -6 -6 -12 -1 -13 8 -18 9
-38 12 -5 0 -10 6 -10 11 0 13 3 13 35 -2z m-33 -126 c-7 -2 -12 -10 -12 -18
0 -9 5 -12 11 -9 6 4 16 -1 23 -11 9 -12 15 -14 20 -6 4 7 11 12 17 12 5 0 4
-9 -3 -20 -7 -10 -8 -23 -4 -27 5 -4 11 -2 13 5 7 20 18 14 18 -11 0 -16 -6
-22 -22 -23 -13 -1 -23 2 -23 7 0 5 -15 9 -32 9 -23 0 -29 -3 -19 -9 8 -5 20
-7 28 -4 7 3 13 0 13 -6 0 -6 -7 -11 -16 -11 -8 0 -12 -4 -9 -10 8 -13 2 -13
-30 2 -22 10 -25 15 -19 47 4 20 10 46 15 57 4 13 3 26 -4 34 -10 10 -7 12 11
7 13 -3 22 0 23 6 0 7 3 5 6 -2 3 -8 1 -17 -5 -19z m-58 2 c5 -14 4 -15 -9 -4
-17 14 -19 20 -6 20 5 0 12 -7 15 -16z m126 -144 c19 0 1 -35 -19 -38 -18 -3
-20 -6 -10 -18 14 -17 -2 -19 -19 -2 -24 24 -4 75 26 63 8 -3 17 -5 22 -5z m0
-90 c0 -5 -4 -10 -9 -10 -6 0 -13 5 -16 10 -3 6 1 10 9 10 9 0 16 -4 16 -10z
m8 -25 c4 -3 0 -10 -7 -14 -7 -5 -10 -14 -7 -20 11 -17 -3 -13 -37 11 -17 12
-27 16 -22 8 5 -9 4 -11 -3 -6 -7 4 -12 14 -12 22 0 11 9 14 41 10 23 -3 44
-8 47 -11z m39 -20 c-4 -8 -13 -15 -22 -15 -13 0 -12 3 3 18 19 21 27 20 19
-3z m-82 -25 c3 -5 -1 -10 -9 -10 -9 0 -16 5 -16 10 0 6 4 10 9 10 6 0 13 -4
16 -10z m35 -220 c0 -5 -6 -10 -14 -10 -8 0 -16 -5 -18 -10 -2 -6 -9 -1 -16
10 -11 18 -10 20 18 20 16 0 30 -4 30 -10z m940 -93 c0 -17 -1 -17 -16 -2 -9
9 -13 23 -9 32 5 15 7 15 15 3 6 -8 10 -23 10 -33z m-50 29 c0 -3 -4 -8 -10
-11 -5 -3 -10 -1 -10 4 0 6 5 11 10 11 6 0 10 -2 10 -4z m-780 -28 c0 -11 -22
-10 -40 2 -11 8 -9 9 13 8 15 -1 27 -6 27 -10z m-225 -58 c3 -5 1 -10 -4 -10
-6 0 -11 5 -11 10 0 6 2 10 4 10 3 0 8 -4 11 -10z m232 -102 c-3 -8 -6 -5 -6
6 -1 11 2 17 5 13 3 -3 4 -12 1 -19z m-107 6 c0 -3 -7 -12 -15 -20 -19 -19
-41 -8 -24 12 11 14 39 20 39 8z m1870 -14 c0 -5 -2 -10 -4 -10 -3 0 -8 5 -11
10 -3 6 -1 10 4 10 6 0 11 -4 11 -10z m-1860 -30 c0 -4 -6 -10 -14 -13 -10 -4
-12 0 -9 14 5 18 23 18 23 -1z m0 -77 c0 -17 -15 -16 -30 1 -9 12 -8 15 9 13
12 -1 21 -7 21 -14z m1870 7 c0 -5 -2 -10 -4 -10 -3 0 -8 5 -11 10 -3 6 -1 10
4 10 6 0 11 -4 11 -10z m17 -12 c-3 -8 -6 -5 -6 6 -1 11 2 17 5 13 3 -3 4 -12
1 -19z m-50 -130 c0 -74 -2 -95 -8 -73 -17 56 -13 175 5 175 1 0 2 -46 3 -102z
m-1690 67 c0 -8 -4 -15 -9 -15 -10 0 -11 14 -1 23 9 10 10 9 10 -8z m1630 -57
c-2 -13 -4 -5 -4 17 -1 22 1 32 4 23 2 -10 2 -28 0 -40z m-1757 21 c0 -5 -4
-9 -10 -9 -5 0 -10 7 -10 16 0 8 5 12 10 9 6 -3 10 -10 10 -16z m1766 -88 c0
-11 -4 -17 -8 -15 -4 3 -8 12 -8 20 0 8 4 14 8 14 4 0 8 -9 8 -19z m-1606 -61
c0 -5 -2 -10 -4 -10 -3 0 -8 5 -11 10 -3 6 -1 10 4 10 6 0 11 -4 11 -10z"/>
<path d="M3457 5943 c-4 -3 -7 -11 -7 -17 0 -6 5 -5 12 2 6 6 9 14 7 17 -3 3
-9 2 -12 -2z"/>
<path d="M4777 1128 c-4 -15 -3 -18 5 -10 6 6 17 8 24 5 21 -8 17 5 -5 16 -15
9 -20 7 -24 -11z"/>
<path d="M4390 7290 c0 -5 5 -10 10 -10 6 0 10 5 10 10 0 6 -4 10 -10 10 -5 0
-10 -4 -10 -10z"/>
<path d="M4213 6528 c-25 -12 -35 -42 -19 -58 8 -8 8 -13 -1 -18 -8 -5 -9 -13
-3 -22 11 -17 186 -24 210 -9 11 8 8 9 -13 6 -19 -3 -31 1 -37 14 -15 27 -13
29 26 29 52 0 33 17 -29 25 -59 8 -90 22 -82 36 8 12 -24 11 -52 -3z"/>
<path d="M4040 6401 c0 -18 -4 -22 -20 -18 -29 8 -32 -5 -8 -44 l21 -34 10 30
c9 31 11 75 2 83 -3 3 -5 -5 -5 -17z"/>
<path d="M4308 6163 c12 -2 30 -2 40 0 9 3 -1 5 -23 4 -22 0 -30 -2 -17 -4z"/>
<path d="M4018 6053 c-31 -8 -20 -41 19 -62 36 -19 44 -14 41 27 -3 38 -18 47
-60 35z"/>
<path d="M4143 5633 c-22 -8 -14 -23 11 -23 30 0 42 15 20 24 -9 3 -16 6 -17
5 -1 0 -8 -3 -14 -6z"/>
<path d="M4878 4478 c3 -12 11 -34 19 -48 13 -24 13 -24 13 -2 0 12 -4 22 -10
22 -5 0 -10 9 -10 19 0 11 -4 22 -9 25 -5 4 -7 -4 -3 -16z"/>
<path d="M5000 4490 c-8 -5 -11 -12 -7 -17 5 -4 11 -3 15 3 4 6 14 14 22 17
13 5 13 5 0 6 -8 0 -22 -3 -30 -9z"/>
<path d="M5026 4465 c4 -8 8 -15 10 -15 2 0 4 7 4 15 0 8 -4 15 -10 15 -5 0
-7 -7 -4 -15z"/>
<path d="M5870 4120 c0 -5 5 -10 10 -10 6 0 10 5 10 10 0 6 -4 10 -10 10 -5 0
-10 -4 -10 -10z"/>
<path d="M6080 3809 c0 -5 5 -7 10 -4 6 3 10 8 10 11 0 2 -4 4 -10 4 -5 0 -10
-5 -10 -11z"/>
<path d="M6720 2461 c0 -6 4 -13 10 -16 6 -3 7 1 4 9 -7 18 -14 21 -14 7z"/>
<path d="M6741 2374 c0 -11 3 -14 6 -6 3 7 2 16 -1 19 -3 4 -6 -2 -5 -13z"/>
<path d="M6526 1951 c-3 -5 3 -11 14 -14 13 -3 20 0 20 9 0 15 -26 19 -34 5z"/>
<path d="M6561 1883 c-1 -7 -10 -13 -20 -13 -11 0 -23 -4 -26 -10 -3 -5 0 -10
8 -10 8 0 18 -10 22 -22 6 -21 7 -21 16 10 6 19 8 39 5 45 -3 9 -5 8 -5 0z"/>
<path d="M6460 1729 c0 -5 5 -7 10 -4 6 3 10 8 10 11 0 2 -4 4 -10 4 -5 0 -10
-5 -10 -11z"/>
<path d="M6797 1634 c-4 -4 -4 -10 -2 -14 6 -10 55 0 55 11 0 10 -43 12 -53 3z"/>
<path d="M6987 843 c-4 -3 -7 -11 -7 -17 0 -6 5 -5 12 2 6 6 9 14 7 17 -3 3
-9 2 -12 -2z"/>
<path d="M6857 810 c-3 -11 -2 -20 3 -20 4 0 10 9 13 20 3 11 2 20 -3 20 -4 0
-10 -9 -13 -20z"/>
<path d="M4857 510 c-3 -14 0 -20 11 -20 8 0 12 3 9 7 -4 3 -2 12 4 20 9 10 8
13 -4 13 -8 0 -17 -9 -20 -20z"/>
<path d="M6781 138 c-1 -86 3 -138 9 -138 12 0 12 226 0 255 -5 13 -9 -31 -9
-117z"/>
<path d="M6820 113 c0 -72 4 -113 10 -113 12 0 10 194 -2 213 -4 7 -8 -39 -8
-100z"/>
<path d="M6851 194 c0 -11 3 -14 6 -6 3 7 2 16 -1 19 -3 4 -6 -2 -5 -13z"/>
<path d="M6856 75 c3 -38 8 -72 10 -74 9 -10 3 115 -7 129 -7 10 -8 -6 -3 -55z"/>
</g>
</svg>
